<svg xmlns="http://www.w3.org/2000/svg" viewBox="0 0 812.8 595.3" enable-background="new 0 0 812.8 595.3"><path stroke="#231F20" stroke-width="1.319" stroke-miterlimit="10" d="M132.2 337.2c-8.3.7-15.1-5.5-15.1-13.8v-14.8l-14.8 1.3c-.3 0-5.1 3.2-12 5.6-6.4.7-14.8 2.1-23.5 4.7-6.4-.6-12.6-.6-18-.2v-31.599999999999998c0-4.8 1.4-8.3 4.5-11.5 3.3-3.4 8.1-6.1 13.5-8.2 5.4 1 10.2 2.7 13.5 5.4 3.1 2.6 4.5 5.8 4.5 10.6v13.4c4.9-.5 9.9-1 14.8-1.4.4 0 7.7-5.1 17.6-7v-59.6c-4.9 0-9.9 0-14.8.1-2.8 0-18.4.4-35.5 5.5-6.4-.6-12.6-.6-18-.2v-5.4c-4.9.5-9.8 1.1-14.8 1.7-.4 0-7.7 3.7-17.5 5.5v96.9c0 8.3-6.8 15.8-15 16.8 8.3-1 15 4.9 15 13.2v6.300000000000001c4.9-.6 9.8-1.2 14.8-1.7.4 0 19.7-4.5 22-6.9 3.3-3.4 8.1-6.1 13.5-8.2 5.4 1 10.2 2.7 13.5 5.4 3 2.5 4.4 5.7 4.5 10.3v94c0 4.8-1.4 8.3-4.5 11.5-3.2 3.2-7.8 5.8-13 7.9-5.6-1-10.6-2.7-13.9-5.4-3.1-2.5-4.5-5.8-4.5-10.6v-88.8c-4.9.5-9.8 1.1-14.8 1.7-.4 0-7.7 4.2-17.5 6.5 0-.3-.1.3 0 0 0 8.3-6.7 15.9-15 16.9 8.3-1 15 4.9 15 13.2v107.4c4.9-.6 9.8-1.2 14.8-1.7 2.6-.1 17.6-1.7 33.9-6.3 17.8 1.9 34.3-.8 37.2-1.3l14.8-2.6v-158.1c-.3-8.5 6.4-15.8 14.8-16.5zM249.4 487.7v-143c0-8.3 6.8-15.4 15.1-15.7-8.4.3-15.1-6.1-15.1-14.4v-100.2l-14.8.7c-.4 0-7.1 4.3-16.3 6.1-5.7.6-12.3 1.6-19.3 3.4-17.2-2.3-32.8 0-35.6.4l-14.8 2.4v93.5c0 8.3-6.8 15.5-15.1 16.2 8.3-.7 15 5.5 15.1 13.8v143.1c0 8.5-6.9 15.8-15.3 16.5l15.3-1.2 17.4-1.3c5-.4 10-.7 15-1l15.3-1c-8.5.5-15.3-5.9-15.3-14.3v-107.1l.1 1.5c0-8.3 6.8-15.5 15.1-16.1-7.6.5-13.8-4.7-14.9-11.8.5-3.2 1.9-5.7 4.2-8 3.3-3.2 8.1-5.7 13.5-7.6 5.4 1.2 10.3 3.1 13.5 5.9 2.4 2.1 3.7 4.5 4.3 7.7-1.2 7.2-7.4 13-14.9 13.5 8.3-.5 15.1 5.9 15.1 14.2v-.4 63.5 42.5c0 8.5-6.9 15.7-15.3 16.2l15.3-.9 10.7-.6c1.7-.1 3.4-.2 5.2-.3l16.6-.8 15.3-.7c-8.6.3-15.4-6.3-15.4-14.7zm-50.5-178.5c-6.4-.9-12.6-1.1-18-1v-31.599999999999998c0-4.8 1.4-8.3 4.5-11.4 3.3-3.2 8.1-5.7 13.5-7.6 5.4 1.2 10.3 3.1 13.5 5.9 3.1 2.7 4.5 6 4.5 10.8v31.6c-5.4.7-11.5 1.7-18 3.3z"/><path fill="#fff" d="M584.4 546s-1.3.7-3.8 1.9-6.1 3.1-10.8 5.2c-2.3 1.1-4.9 2.3-7.8 3.6-2.9 1.2-5.9 2.6-9.2 4-3.3 1.3-6.9 2.7-10.6 4.2-3.8 1.4-7.8 2.8-12 4.3-8.4 2.8-17.5 5.7-27.4 8.2-4.9 1.4-10 2.5-15.2 3.7-2.6.6-5.2 1.1-7.9 1.6s-5.4 1.1-8.1 1.5c-2.7.5-5.5.9-8.3 1.4l-8.4 1.2-4.2.6-4.3.5-8.6.9c-11.6 1-23.4 1.5-35.2 1.6-11.8-.1-23.6-.6-35.2-1.6-2.9-.2-5.8-.6-8.6-.9l-4.3-.5-4.2-.6-8.4-1.2-8.3-1.4c-2.7-.4-5.4-1-8.1-1.5-2.7-.5-5.3-1-7.9-1.6-5.2-1.2-10.3-2.3-15.2-3.7-9.8-2.5-19-5.4-27.4-8.2-4.2-1.4-8.2-2.9-12-4.3-3.7-1.5-7.3-2.9-10.6-4.2-3.3-1.4-6.4-2.7-9.2-4-2.9-1.2-5.4-2.5-7.8-3.6-4.7-2.1-8.3-4-10.8-5.2-2.5-1.2-3.8-1.9-3.8-1.9s1.3.6 3.8 1.8c2.5 1.2 6.1 3 10.8 5 2.4 1 4.9 2.3 7.8 3.4 2.9 1.2 6 2.4 9.3 3.8 3.4 1.3 6.9 2.6 10.7 4 3.8 1.3 7.8 2.7 12 4.1 8.4 2.7 17.6 5.5 27.4 7.9 4.9 1.3 10 2.4 15.2 3.5 2.6.6 5.2 1 7.9 1.6 2.7.5 5.3 1.1 8.1 1.5l8.2 1.3c2.8.4 5.6.8 8.4 1.1l4.2.6c1.4.1 2.8.3 4.3.4 2.9.3 5.7.6 8.6.8 11.5 1 23.3 1.4 35.1 1.5 11.7-.1 23.5-.5 35-1.5l8.6-.8 4.3-.4 4.2-.6c2.8-.4 5.6-.8 8.4-1.1 2.8-.5 5.5-.9 8.2-1.3 2.7-.4 5.4-1 8.1-1.5 2.7-.5 5.3-1 7.9-1.6 5.2-1.2 10.3-2.2 15.2-3.5 9.8-2.4 19-5.2 27.4-7.9 4.2-1.4 8.2-2.8 12-4.1 3.8-1.4 7.3-2.8 10.7-4 3.3-1.4 6.4-2.6 9.3-3.8 2.9-1.2 5.5-2.4 7.8-3.4 4.7-2 8.4-3.9 10.8-5l3.9-1.8z"/><circle fill="#fff" cx="402.7" cy="589.1" r="6.2"/><path stroke="#fff" stroke-width="1.471" stroke-linecap="round" stroke-linejoin="round" stroke-miterlimit="10" d="M128 281.2" fill="none"/><path fill="#fff" d="M16.5 525.1c-.4 0-.7-.1-1-.4-.3-.3-.5-.7-.5-1.1v-107.5c0-6.8-5-11.9-11.7-11.9-.6 0-1.1 0-1.7.1-.8.1-1.5-.5-1.6-1.3-.1-.8.5-1.5 1.3-1.6 7.5-.9 13.7-7.8 13.7-15.4v-.1l.1-.6c.4-.9 1.2-.9 1.4-.9h.2c7.3-1.7 13-4.5 15.4-5.7 1.2-.6 1.4-.7 1.8-.7 4.8-.6 9.7-1.1 14.7-1.6.4 0 .8.1 1.1.4.3.3.5.7.5 1.1v88.8c0 4.3 1.2 7.2 3.9 9.4 2.8 2.3 7.1 4 12.9 5 5.3-2.2 9.4-4.7 12.1-7.4 2.9-2.9 4.1-6 4.1-10.5v-94c-.1-4.2-1.2-7-3.9-9.2-2.8-2.3-6.9-3.9-12.4-5-5.5 2.2-9.8 4.8-12.6 7.7-2.9 2.9-22.7 7.3-22.9 7.3l-14.7 1.7c-.4.1-.8-.1-1.2-.4-.3-.3-.5-.7-.5-1.1v-6.3c0-6.7-5.1-11.8-11.7-11.8-.6 0-1.1 0-1.7.1-.8.1-1.5-.5-1.6-1.3v-.2c0-.7.5-1.4 1.3-1.5 7.5-.9 13.7-7.8 13.7-15.4v-96.8c0-.7.5-1.3 1.2-1.4 7.6-1.4 13.8-4 16.1-5 1-.4 1.3-.5 1.6-.6 4.8-.6 9.8-1.1 14.7-1.6.4-.1.8.1 1.1.4.3.3.5.7.5 1.1v3.9c5.7-.3 11.2-.2 16.3.3 17.3-5.1 32.7-5.4 35.7-5.5l14.8-.1c.4 0 .8.2 1 .4.3.3.4.7.4 1v59.7c0 .7-.5 1.3-1.2 1.4-7.6 1.5-13.7 4.9-16 6.3-1 .6-1.3.7-1.7.8l-14.7 1.4c-.4 0-.8-.1-1.1-.4-.3-.3-.5-.7-.5-1.1v-13.3c0-4.4-1.2-7.2-3.9-9.5-2.8-2.3-6.9-3.9-12.4-5-5.5 2.2-9.8 4.8-12.6 7.7-2.8 2.9-4.1 6.1-4.1 10.5v30c5.6-.3 11.2-.2 16.3.3 9.2-2.7 17.7-4 23.3-4.7 4.9-1.7 8.7-3.8 10.5-4.8 1.1-.6 1.3-.8 1.8-.8 4.8-.4 9.7-.9 14.7-1.3.4 0 .8.1 1.1.4.3.3.5.7.5 1.1v14.8c0 7.4 5.9 13 13.5 12.3.8-.1 1.5.5 1.6 1.3v.1c0 .8-.6 1.4-1.4 1.5-7.6.6-13.7 7.3-13.7 14.9v158.1c0 .7-.5 1.3-1.2 1.4l-14.8 2.6c-1.9.3-11.9 2-24.4 2-4.5 0-8.8-.2-12.9-.6-16 4.5-31.1 6.2-33.9 6.3-4.8.6-9.7 1.1-14.6 1.7 0 .1 0 .1-.1.1zm1.5-45.5v42.4l13.1-1.5c2.9-.1 17.8-1.8 33.6-6.3.2 0 .4-.1.6 0 4.1.4 8.4.6 12.9.7 12.3 0 22-1.6 23.9-2l13.6-2.4v-156.9c0-6.7 4-12.8 9.7-15.8-5.7-2.2-9.7-7.7-9.7-14.3v-13.2c-4.3.4-8.6.8-13 1.2-.2.1-.4.2-.7.4-1.9 1.1-5.9 3.3-11.2 5.1l-.3.1c-5.6.6-14.1 1.9-23.3 4.6-.2.1-.4.1-.6.1-5.6-.5-11.6-.6-17.8-.2-.4 0-.8-.1-1.1-.4-.3-.3-.5-.7-.5-1.1v-31.8c0-5.1 1.5-8.9 4.9-12.4 3.2-3.3 7.9-6.1 14-8.5.3-.1.5-.1.8-.1 6.2 1.1 10.9 3 14.1 5.7 3.4 2.8 5 6.5 5 11.7v11.7c4.3-.4 8.6-.8 13-1.2.2-.1.4-.2.7-.4 2.3-1.3 8.2-4.7 15.7-6.3v-57c-4.4 0-8.9 0-13.3.1-2.9 0-18.1.3-35.1 5.4-.2.1-.4.1-.6.1-5.6-.5-11.6-.6-17.8-.2-.4 0-.8-.1-1.1-.4-.3-.3-.5-.7-.5-1.1v-3.8l-13 1.5c-.2.1-.5.2-.8.3-2.3 1-8.1 3.4-15.5 4.9v95.7c0 6.6-4 12.8-9.7 16.1 5.7 2 9.7 7.3 9.7 13.9v4.7l13.1-1.5c2-.4 19.4-4.6 21.1-6.4 3.2-3.3 7.9-6.1 14-8.5.3-.1.5-.1.8-.1 6.2 1.1 10.9 3 14.2 5.7 3.4 2.8 4.9 6.4 5 11.4v94c0 5.2-1.5 9.1-4.9 12.5-3.1 3.1-7.6 5.9-13.5 8.3-.3.1-.5.1-.8.1-6.4-1.1-11.3-3-14.6-5.7-3.4-2.8-5-6.5-5-11.7v-87.2l-13 1.5c-.2.1-.5.2-.9.4-2.5 1.2-8.2 4-15.5 5.8-.4 6.2-4.3 11.9-9.7 15 5.8 2 9.7 7.3 9.7 14l.3 63.3zM133.2 511.9c-.8 0-1.4-.6-1.5-1.4-.1-.8.5-1.5 1.3-1.6 7.7-.6 14-7.4 14-15.1v-143c0-7.4-5.9-13-13.5-12.3-.8.1-1.5-.5-1.6-1.3-.1-.8.5-1.5 1.3-1.6 7.5-.6 13.7-7.2 13.7-14.8v-93.5c0-.7.5-1.3 1.2-1.5l14.8-2.4c2.1-.3 9.7-1.4 19.8-1.4 5.5 0 10.9.3 15.9 1 6.1-1.5 12.5-2.6 19.1-3.3 7-1.4 12.4-4.2 14.8-5.4 1.1-.6 1.3-.7 1.8-.7 4.9-.2 9.8-.5 14.8-.7.4 0 .8.1 1.1.4.3.3.5.7.5 1.1v100.2c0 7.5 6.1 13.2 13.6 13 .7 0 1.5.6 1.5 1.4 0 .8-.6 1.5-1.4 1.5-7.6.3-13.7 6.7-13.7 14.3v143c0 7.6 6.1 13.4 13.8 13.2.8 0 1.5.6 1.5 1.4 0 .8-.6 1.5-1.4 1.5-5.1.2-10.2.4-15.3.7l-16.6.8-5.2.3c-3.6.2-7.1.4-10.6.6l-15.3.9c-.8 0-1.5-.6-1.6-1.4s.6-1.5 1.4-1.6c7.7-.5 14-7.1 14-14.7v-105.8c0-7.4-6.1-13.1-13.5-12.7-.8 0-1.5-.6-1.6-1.4s.6-1.5 1.4-1.6c6.7-.4 12.3-5.4 13.5-12-.5-2.7-1.7-4.8-3.7-6.6-2.8-2.4-7-4.3-12.5-5.5-5.5 2-9.8 4.4-12.6 7.1-2.1 2-3.3 4.3-3.8 7 1.1 6.3 6.7 10.8 13.3 10.4.8 0 1.5.6 1.6 1.4.1.8-.6 1.5-1.4 1.6-7.6.5-13.7 7-13.7 14.6 0 .2 0 .3-.1.5v105.1c0 7.5 6.1 13.3 13.8 12.8.8 0 1.5.6 1.6 1.4.1.8-.6 1.5-1.4 1.6-5.1.3-10.2.6-15.3 1l-15 1-17.4 1.3-15.3 1.2h-.1zm16.8-17.8c-.1 5.6-2.9 10.8-7.2 14.1 1.9-.1 3.8-.3 5.6-.4l17.4-1.3c5-.4 10-.7 15-1l6-.4c-4.5-2.8-7.4-7.7-7.4-13.4v-107.2c0-.3.1-.6.2-.8.8-5.8 4.5-10.8 9.6-13.4-5-2-8.7-6.4-9.5-12v-.5c.6-3.5 2.1-6.3 4.6-8.8 3.2-3.1 7.9-5.8 14.1-8 .3-.1.5-.1.8 0 6.2 1.4 10.9 3.5 14.2 6.3 2.6 2.3 4.2 5.1 4.7 8.6v.5c-.9 5.6-4.6 10.4-9.5 12.9 5.6 2.2 9.5 7.5 9.7 13.9v106.39999999999999c0 5.6-2.9 10.8-7.3 14.1l5.7-.3 10.7-.6 5.2-.3c5.5-.3 11.1-.6 16.6-.8l5.9-.3c-4.4-2.8-7.3-7.7-7.3-13.5v-143.1c0-6.7 4-12.6 9.7-15.5-5.8-2.4-9.7-8-9.7-14.7v-98.7l-13.1.6c-.2.1-.4.2-.7.4-2.4 1.3-8.2 4.3-15.6 5.7h-.1c-6.6.7-13 1.8-19 3.3-.2 0-.4.1-.6 0-5-.7-10.3-1-15.8-1-10.1 0-17.9 1.2-19.4 1.4-4.5.7-9 1.4-13.6 2.2v92.3c0 6.6-4 12.7-9.7 15.7 5.7 2.2 9.7 7.7 9.7 14.3v143.1c.1.1.1.1.1.2zm48.9-183.4h-.2c-5-.7-10.3-1-15.8-1h-2c-.4 0-.8-.2-1-.4-.3-.3-.4-.7-.4-1v-31.6c0-5.2 1.5-9.1 4.9-12.4 3.2-3.1 7.9-5.8 14.1-8 .3-.1.5-.1.8 0 6.2 1.4 10.9 3.5 14.2 6.3 3.4 2.9 5 6.7 5 11.9v31.5c0 .8-.6 1.4-1.3 1.5-6.2.7-12.1 1.7-17.8 3.2h-.5zm-16-4c5.5 0 10.9.3 15.9 1 5.3-1.3 10.9-2.4 16.6-3v-30.3c0-4.4-1.2-7.3-4-9.7-2.8-2.4-7-4.3-12.5-5.5-5.5 2-9.8 4.4-12.6 7.1-2.8 2.8-4.1 5.9-4.1 10.3v30.1h.7zM283.2 220h-.1.1zM464 214.8c3.9-.7 7.8-1.1 11.4-1.4-14.6-2.4-26.9-1.7-29.5-1.5-1.1.1-2.2.2-3.3.2 6.2.3 13.7 1.1 21.4 2.7zM481.8 495.3c-5.4-.7-11.5-1.2-17.8-1.9-6.2.4-12.1.7-17.5 1.1-7.6.6-14.2 3.3-16.2 4.6v.7c0 .8.3 1.5 1.1 1.5l14.6.2c.5 0 .7-.1 1.8-.6 2.3-1.1 8.5-3.9 16.2-4.5 3-.2 6.1-.4 9.5-.6 2.7-.2 5.5-.3 8.3-.5.1 0 .3.1.5.1-.1 0-.3-.1-.5-.1zM506.2 493.2c-1.6.1-3.1.2-4.7.2h-.2l-4.5-1.8c-.7-.3-1.5-.5-2.3-.8-.7-.3-1.5-.5-2.3-.7l-2.3-.6c-.8-.2-1.5-.4-2.3-.5l-2.3-.4c-.8-.1-1.6-.2-2.3-.3-.7-.1-1.6-.2-2.4-.2l-2.4-.2-4.8-.4c-3.2-.3-6.4-.6-9.6-1h.3l-4.8.3-4.8.3-4.8.2-2.4.1c-.8 0-1.7.1-2.3.1l-2.4.2-2.3.3-2.3.4c-.8.1-1.5.3-2.3.5-.8.2-1.5.3-2.3.6-.8.2-1.5.4-2.3.7-1.5.5-3 1-4.5 1.6h-.1l-4.7-.4 4.7-.3h-.2c1.4-.8 2.8-1.5 4.3-2.1 1.5-.7 3-1.2 4.5-1.7.8-.3 1.5-.5 2.3-.7l2.4-.6c.8-.2 1.6-.4 2.4-.5.8-.1 1.6-.2 2.4-.4.9-.1 1.6-.2 2.4-.2l2.4-.2 4.8-.4c3.2-.2 6.4-.4 9.5-.7h.3c3.2.4 6.4.7 9.5 1.1l4.8.6 2.4.3 2.4.3 2.4.5 2.4.6c.8.2 1.6.4 2.4.7.8.2 1.6.5 2.3.8 1.5.6 3.1 1.2 4.5 1.9 1.5.7 2.9 1.5 4.3 2.3h-.2c1.8.1 3.4.3 5 .5zM33.4 368.2c0 .4-.2.8.1 1.1s.5.4 1 .4c4.9-.6 9.7-1.1 14.7-1.6.2 0 20-4.3 22.9-7.2 1.4-1.4 3.1-2.8 5.1-4-2.9-1.5-6.5-2.6-10.4-3.3-5.4 2.1-9.9 4.8-13.2 8.2-2 1.8-16.2 5.3-20.2 6.4zM67.9 286.5c0-4.4 1.2-7.6 4.1-10.5 1.4-1.4 3.1-2.7 5.2-4-2.9-1.5-6.5-2.6-10.4-3.4-5.4 2.1-10.2 5.1-13.5 8.5-3.1 3.2-4.5 6.8-4.5 11.8h.6v31c5-.3 11.3-.3 17.7.2 5.2-1.6 10.1-2.7 14.7-3.5-4.4-.3-9.1-.4-13.8-.2v-29.9c0 .2-.1.1-.1 0zM102.5 230c4.9 0 9.9-.1 14.9-.1v59.7c-8 1.4-13 4.4-16 6v.7c0 .4-.1.8.2 1.1.3.3.6.4 1 .4 4.9-.5 9.8-.9 14.6-1.3.5 0 .7-.1 1.8-.8 2.3-1.3 8.5-4.7 16.1-6.2.7-.1 1.3-.7 1.3-1.4v-59.7c0-.8-.7-1.4-1.5-1.4h-14.899999999999999c-2.8 0-16.6.2-32.8 4.5 7.8-1 13.7-1.5 15.3-1.5zM53.6 477.2c3.3 2.7 8.2 4.4 13.8 5.4 3.8-1.5 7.2-3.3 10-5.4-2.1-.8-3.8-1.8-5.2-3-2.8-2.3-3.8-5.1-3.8-9.4v-88.8c0-.4-.4-.8-.7-1.1-.3-.3-.8-.4-1.3-.4-4.9.5-9.9 1-14.7 1.6-.4 0-.7.1-1.9.7-.7.3-1.3.8-2.5 1.3.6-.1 2-.1 2-.2v88.80000000000001c.1 4.7 1.2 8 4.3 10.5zM90.3 315.5l1.2-.4-2.4.6 1.2-.2zM65.1 515.6c-14.2 4-27.5 5.8-32.3 6.2 0 .3.2.6.4.9.3.2.6.4.9.4h.1c4.9-.6 9.8-1.1 14.6-1.6 2.6-.1 15.7-1.5 30.3-5.1-4.3-.1-9.1-.3-14-.8zM136.4 307.9v-.8c0-.4-.3-.8-.6-1.1-.3-.3-.8-.4-1.2-.4-4.9.4-9.9.8-14.7 1.2-.5 0-.8.1-1.9.8-.5.3-1 .6-1.7 1 .3 0 1-.1 1-.1v14.8c0 8.3 6.7 14.5 15.1 13.8-8.3.7-15.1 8-15.1 16.4v158c-5 .9-10 1.7-14.9 2.6-1.4.3-6.3 1.1-13 1.6 2.3.1 4.7.2 7.1.2 12.1 0 21.8-1.6 23.6-1.9 4.9-.9 9.9-1.7 14.9-2.5.7-.1 1.3-.7 1.3-1.5v-173.5c.1-14.2.1-28.4.1-28.6zM49.4 229.8v5.4c5-.3 11.3-.3 17.7.2 5.7-1.7 11.1-2.9 16.1-3.7-4.8-.3-10.7-.2-14.7 0v-3.9c0-.4-.4-.8-.7-1.1-.3-.3-.9-.4-1.3-.4-4.9.5-9.9 1-14.8 1.6-.3 0-.6.1-1.6.5-.8.3-1.9.9-3.6 1.5.8.1.9 0 2.9-.1zM198.9 224.5c5.2-1.3 10.3-2.2 14.9-2.8-4.5-.5-9.2-.8-14-.8-10 0-17.6 1.1-19.1 1.3l-14.8 2.3h-.1c5.8-.7 18.9-1.9 33.1 0zM204.3 265.2c1.4-1.3 3.1-2.6 5.1-3.8-2.9-1.7-6.5-2.9-10.4-3.8-5.4 1.9-10.5 4.4-13.8 7.6-3.1 3.1-4.8 6.6-4.8 11.4v31.599999999999998c6-.1 11.9.1 18.3 1 5.3-1.4 10.6-2.2 15.2-2.9-4.5-.5-9.5-.8-13.5-.8v-30.1c0-4.3 1-7.4 3.9-10.2zM201.6 505.5c2.9-.2 5.6-1.2 8-2.7-2.1-.6-4-1.7-5.6-3.2-2.4-2.4-3.6-5.6-3.6-9.2v-105.1c0-.1-.1-.3-.1-.3h-.1c0-6 3.9-11.6 9.2-13.6-2.2-1.2-4.8-1.9-7.6-1.7 2.8-.2 5.5-1.2 7.8-2.7-4.7-1.2-8.4-5.1-9.2-10 .5-2.7 1.7-4.9 3.8-7 1.4-1.4 3.1-2.6 5.2-3.8-2.9-1.7-6.5-2.9-10.4-3.8-5.4 1.9-10.2 4.4-13.5 7.6-2.3 2.3-3.7 4.9-4.2 8 1.1 7.2 7.3 12.3 14.9 11.8-8.3.5-15.4 7.7-15.4 16.1l-.3-1.5v107.1c0 8.5 7.1 14.8 15.6 14.3l-15.2 1c-5 .3-9.9.7-15 1l-16.5 1.2c.1.8.7 1.4 1.5 1.4h.1c5.1-.4 10.2-.8 15.3-1.1l17.4-1.2 15-.6c5.1-.3 10.2-.5 15.3-.5.7 0 1.3-1 1.4-1.7l-13.8.2zM282.4 500.2c-3.8.1-7.3-1.2-9.9-3.8-2.5-2.5-3.5-5.8-3.5-9.4l.4-.1v-143c0-7.5 5.3-12.9 12.8-13.9.8 0 1.4-.9 1.4-1.7 0-.8-.3-1.6-1.1-1.5-7.6.2-13.2-5.6-13.2-13.1v-100.2c0-.4-.6-.8-.9-1.1-.3-.3-.9-.4-1.3-.4l-14.9.6c-.5 0-.8.1-1.8.7-.5.3-1.1.6-1.9.9h.8v100.2c0 8.3 6.8 14.8 15.1 14.4-8.3.3-15.1 7.4-15.1 15.7v143.3c0 8.5 6.8 16 15.3 15-5.1 0-10.2.1-15.3.3-5.5.3-11.1.4-16.6.6-1.7.1-3.4.1-5.2.2l-9.8.5v.1c0 .8.7 1.3 1.6 1.3 5.1-.3 10.2-.6 15.3-.8 3.6-.2 7.1-.4 10.7-.5l5.2-.2c5.5-.3 11.1-.1 16.6-.3 5.1-.2 10.2-.1 15.3-.1.8 0 1.4-1.1 1.4-2 .1-.7-.6-1.8-1.4-1.7zM287.7 216.9c-1.5.1-3 .1-4.6.1-.8 0-1.3.5-1.4 1.2 2.2-.3 4.2-.8 6-1.3zM314.4 493.1v4.3c-8 .7-15 2.8-17 3.6v.2c0 .4 0 1 .3 1.3.3.3.5.6.9.6 4.9 0 9.9-.5 14.8-.6.3 0 .6-.2 1.5-.5 2.3-.7 8.4-2.8 16.1-3.4.3 0 1.1-.2 1.3-.4-6.1-1.2-12.9-2.8-17.9-5.1zM596.4 220.5c3.9-.5 7.8-.8 11.4-.9-14.6-3-26.8-2.8-29.4-2.8l-3.3.1c6.1.6 13.6 1.6 21.3 3.6zM614.2 501.8c-5.4-.9-11.5-1.7-17.7-2.7-6.2.2-12.1.2-17.4.4-8.2.3-14.6 3.1-16.6 4.1v.5c0 .8.5 1.4 1.3 1.5 4.9.3 9.8.5 14.6.8.5.1.8-.1 1.9-.5 2.3-1 8.5-3.6 16.2-3.8 3-.1 6.1-.1 9.5-.2 2.6 0 5.3-.1 8.1-.1.3.1.6.1 1 .2-.4-.1-.6-.2-.9-.2zM638.3 500.6h-4.8c-1.5-.7-3-1.4-4.5-1.9-.7-.3-1.5-.6-2.3-.9-.7-.3-1.5-.5-2.3-.8-.8-.3-1.5-.5-2.3-.7l-2.3-.6c-.8-.2-1.5-.4-2.3-.5-.8-.1-1.6-.3-2.3-.4-.7-.1-1.6-.2-2.4-.3l-2.4-.3-4.8-.6-9.6-1.4h.3c-1.6 0-3.2 0-4.8.1-1.6 0-3.2 0-4.8.1h-9.5l-2.4.1c-.8 0-1.5.1-2.3.2l-2.3.3c-.8.1-1.5.2-2.3.4l-2.3.5c-.8.2-1.5.3-2.3.6-1.5.4-3 .9-4.5 1.4h-.2l-4.7-.6c1.6-.1 3.1-.1 4.7-.1h-.2c1.4-.7 2.9-1.4 4.3-1.9 1.5-.6 3-1.1 4.5-1.5l2.3-.6c.8-.2 1.6-.4 2.4-.5l2.4-.4 2.4-.3c.9-.1 1.6-.1 2.4-.1l2.4-.1 4.8-.2 9.5-.3h.3l9.5 1.5 4.8.8 2.4.4 2.4.4 2.4.6 2.4.7c.8.2 1.6.5 2.4.8.8.3 1.6.6 2.3.9 1.5.6 3 1.3 4.5 2.1s2.9 1.6 4.3 2.5h-.2c1.8.1 3.4.4 5 .6z"/><path stroke="#231F20" stroke-width="1.319" stroke-miterlimit="10" d="M381.8 324.6c-10.8 0-21.6.1-32.5.3v.4c-.2 8.3-7 15-15.3 15.1l15.3-.3v127.2c-11.7-.7-24.9-3.1-31.6-9.1-3.1-2.8-4.5-6.2-4.5-10.9v-226.1 6.1c5.1-.1 10.2-.2 15.3-.4-8.2.2-14.8-6-15.3-14.1v-1l-14.8.4c-.4 0-7.7 4.6-17.6 6l-15.3.6c8.5-.3 15.3 6.3 15.3 14.7v274.1-6.1l14.8-.5c.4 0 7.7-3 17.6-3.8v-4.3c22.9 8.9 49.9 6.7 53.7 6.4l14.8-1.4v-158.2c0-8.5 6.9-15.3 15.4-15.3-5 .2-10.1.2-15.3.2z"/><path fill="#fff" d="M280.9 503.2c-.4 0-.7-.1-1-.4-.3-.3-.4-.7-.4-1.1v-268c0-7.4-5.8-13.3-13.2-13.3h-.8999999999999999c-.6-.1-1.1-.7-1.1-1.4s.4-1.3 1-1.5c.1 0 .2-.1.4-.1 5-.2 10-.4 15.1-.6h.1c7.6-1.1 13.7-4.2 16-5.3 1.1-.5 1.3-.7 1.8-.7l14.8-.4c.4 0 .8.1 1.1.4.3.3.4.7.4 1.1v.9c.4 7 6.3 12.6 13.5 12.6h.3c.8 0 1.5.6 1.5 1.4 0 .8-.6 1.5-1.4 1.5-4.6.1-9.2.2-13.9.3v218.5c0 4.4 1.2 7.3 4 9.8 6.9 6.1 20.6 8.1 29.1 8.7v-123.9l-13.8.2c-.8 0-1.5-.6-1.5-1.4 0-.8.6-1.5 1.4-1.5 7.6-.2 13.6-6.2 13.9-13.7v-.4c0-.8.6-1.5 1.5-1.5 10.7-.1 21.6-.2 32.5-.3h15.4c.8 0 1.5.7 1.5 1.5s-.7 1.5-1.5 1.5c-7.7 0-13.9 6.2-13.9 13.9v158.2c0 .8-.6 1.4-1.3 1.5-4.9.4-9.9.9-14.8 1.4-2 .2-6.2.5-11.9.5-10.7 0-26.2-1.1-40.5-6.2v2.2c0 .8-.6 1.4-1.3 1.5-7.7.7-13.9 2.7-16.2 3.5-1 .3-1.2.4-1.5.4-5.3-.2-10.2 0-15.2.2zm1.4-97v93.9c4.4-.2 8.8-.3 13.2-.4.2 0 .4-.1.8-.3 2.3-.7 8.1-2.6 15.5-3.5v-3c0-.5.2-.9.6-1.2.4-.3.9-.3 1.4-.2 14.3 5.6 30.4 6.8 41.4 6.8 5.8 0 10.1-.3 11.6-.5l13.5-1.2v-156.7c0-5.7 2.9-10.8 7.3-13.9h-5.8c-10.4 0-20.8.1-31.1.3-.5 5.2-3.2 9.7-7.2 12.5l5.7-.1c.4 0 .8.1 1.1.4.3.3.4.7.4 1v127.2c0 .4-.2.8-.5 1.1-.3.3-.7.4-1.1.4-8.7-.5-24.5-2.4-32.5-9.5-3.5-3.1-5-6.8-5-12v-220c0-.8.6-1.5 1.4-1.5 2-.1 3.9-.1 5.9-.1-4.1-2.7-6.9-7.1-7.3-12.2-4.4.1-8.8.2-13.1.4-.2.1-.4.2-.7.4-2.4 1.2-8.7 4.4-16.7 5.6l-.4.1-5.9.2c4.4 2.9 7.3 7.8 7.3 13.6v172.4zM314.4 212v1c0 8 6.3 15 14.5 15h.1c-5.1 0-9.6-.8-14.6-.6v219.9c0 4.8.9 8.2 4 10.9 6.7 6 19 8.5 31 9.1v-35.2c-5-1.4-9.9-3.3-13.1-6.2-2.8-2.5-3.9-5.5-3.9-9.9v-187.4c5-.1 9.3-.2 13.9-.2.8 0 1.5-.4 1.5-1.2 0-.8-.6-1.1-1.4-1.1l-.3-.3c-7.2 0-12.7-5.9-13.7-13v-.9c0-.4-.1-.8-.4-1-.3-.3-.6-.4-1-.4l-14.8.3c-.4 0-.7.1-1.8.7-.4.2-.4.4-1 .7.2-.2 1-.2 1-.2zM406.7 324.8l-7.1-1.4-4.2 1.4c-7.5 1-12.9 7.4-12.9 15.2v158.2c-5 .4-10.2.9-15.1 1.4-1.5.1-6.6.5-13.4.5 7.4 1 14.3 1.3 19.9 1.3 5.3 0 9.2-.3 11.1-.4l15-1.3c.8-.1 1.6-.7 1.6-1.5v-156.7c0-3.7 1.2-7.1 3.8-9.7 1.6-1.6 3.4-2.7 5.5-3.4-1.2-1.4-2.7-2.6-4.2-3.6z"/><path stroke="#231F20" stroke-width="3" stroke-miterlimit="10" d="M529.1 325.3c-8.1-.6-14.6-7.5-14.6-15.6v.1-42.3-51.7l-14.8-1.8c-2.8-.3-18.4-2-35.6 1-17.2-3.7-32.9-2.8-35.7-2.6-4.9.4-9.9.8-14.8 1.1v95.7c-.9 7.5-7.3 13.2-15 13.2 7.7 0 14.1 5.9 15 13.3v163.90000000000003l14.8.1c.4 0 7.8-4.4 17.9-5.2 5.4-.4 11.5-.7 17.8-1.1 6.2.7 12.4 1.2 17.8 1.9 10 1.3 17.4 6 17.9 6l14.8.5v-162.2.1c-.1-8.1 6.4-14.5 14.5-14.4m-47-16.7v-.1c0 8.3-6.8 14.9-15.1 14.7 8.4.2 15.1 7.1 15.1 15.5v-.1 66.7.5 3.9 11.3 13.2 13.7c0 4.8-1.4 8.2-4.5 10.9-3.3 2.9-8.1 4.6-13.5 5.7-5.4-1.3-10.3-3.2-13.5-6.3-3.1-2.9-4.5-6.3-4.5-11.1v-110.80000000000001c.1.5.1 1.1.1 1.6 0-8.3 6.8-15 15.1-14.8-8.4-.2-15.1-7-15.1-15.4 0 .5 0 1.1-.1 1.6v-43.7c0-4.8 1.4-8.2 4.5-11 3.3-2.9 8.1-5 13.5-6.5 5.4 1.7 10.3 4 13.5 7.1 3.1 2.9 4.5 6.4 4.5 11.2v42.2z"/><path fill="#fff" d="M514.5 503.3c-5-.2-9.9-.4-14.9-.5-.4 0-.6-.1-1.7-.7-2.3-1.2-8.6-4.4-16.3-5.3-3-.4-6.2-.7-9.6-1-2.6-.3-5.3-.5-8-.9-2.7.2-5.5.3-8.1.5-3.4.2-6.5.4-9.5.6-7.7.6-13.9 3.5-16.3 4.6-1 .5-1.3.6-1.8.6-4.9-.1-9.9-.1-14.8-.1-.8 0-1.5-.7-1.5-1.5v-163.8c-.9-6.8-6.7-11.9-13.5-12-.8 0-1.5-.7-1.5-1.5s.7-1.5 1.5-1.5c6.9 0 12.7-5.1 13.5-11.8v-95.7c0-.8.6-1.4 1.4-1.5 4.9-.4 9.9-.8 14.8-1.1 2.9-.2 18.5-1.1 35.8 2.6 17.3-2.9 32.8-1.3 35.8-1l14.8 1.8c.7.1 1.3.7 1.3 1.5v93.89999999999999c0 7.4 5.8 13.6 13.3 14.2l-.1 1.5v1.5h-.1c-3.5 0-6.7 1.3-9.2 3.7-2.5 2.4-3.8 5.7-3.8 9.3v162c0 .4-.2.8-.5 1.1-.2.4-.6.5-1 .5zm-14.5-3.5c4.4.1 8.8.3 13.1.5v-160.79999999999998c.1-4.2 1.7-8.2 4.7-11.1 1.5-1.5 3.2-2.6 5.1-3.4-5.7-2.8-9.6-8.6-9.8-15.2v-92.89999999999999c-4.5-.6-9-1.1-13.5-1.6-2.9-.3-18.3-1.9-35.2 1h-.6c-17-3.7-32.3-2.8-35.2-2.6l-13.5 1v94.60000000000001c-.7 5.9-4.5 10.7-9.6 13.1 5.1 2.3 8.9 7.2 9.6 13.2v162.6c4.4 0 8.8.1 13.1.1.2-.1.4-.2.7-.3 2.5-1.1 9-4.2 17.3-4.9 3-.2 6.2-.4 9.6-.6 2.7-.2 5.4-.3 8.2-.5h.3c2.8.3 5.5.6 8.1.9 3.4.3 6.6.7 9.6 1.1 8.2 1 14.8 4.4 17.3 5.6.3 0 .5.2.7.2zm-36-33.9h-.3c-6.4-1.6-11.1-3.7-14.2-6.7-3.4-3.2-5-7-5-12.2v-110.8c0-.3.1-.6.3-.8.5-3.5 2.1-6.7 4.7-9.2 1.4-1.4 3.1-2.5 4.9-3.3-5-2.4-8.7-7.2-9.6-12.8-.2-.2-.3-.5-.3-.8v-43.7c0-5.2 1.6-9 5-12.1 3.2-2.9 8-5.2 14.1-6.8.3-.1.5-.1.8 0 6.2 1.9 10.9 4.4 14.1 7.4 3.4 3.2 5 7 5 12.2v42.5c-.1 4.3-1.8 8.3-4.8 11.3-1.4 1.4-3.1 2.5-4.9 3.3 5.7 2.7 9.6 8.4 9.7 15v109.3c0 5.2-1.5 9-5 12-3.1 2.8-7.8 4.8-14.2 6.1-.1.1-.2.1-.3.1zm-16.5-127.6v108.6c0 4.4 1.2 7.4 4 10.1 2.7 2.5 6.8 4.5 12.6 5.9 5.7-1.2 9.8-2.9 12.5-5.3 2.8-2.5 4-5.4 4-9.8v-109.1c0-7.5-6.1-13.8-13.7-14-.8 0-1.5-.7-1.4-1.5 0-.8.7-1.4 1.5-1.4h.4c3.5 0 6.8-1.3 9.3-3.8 2.5-2.5 4-5.8 4-9.5v-42.1c0-4.4-1.2-7.4-4-10.1-2.8-2.6-7-4.9-12.6-6.6-5.5 1.5-9.7 3.5-12.5 6-2.8 2.5-4 5.5-4 9.9v41.7c.1.2.1.3.1.5 0 7.5 6.1 13.7 13.7 13.9.8 0 1.5.7 1.4 1.5 0 .8-.7 1.4-1.5 1.4-3.6-.1-7.1 1.3-9.6 3.8s-4 5.8-4 9.4v.1c-.1.1-.2.3-.2.4zM446.3 337.8l.1-1.6v110.80000000000001c0 4.8 1.2 8.2 4.3 11.1 3.3 3.1 8 5 13.4 6.3 5.4-1.1 10.9-2.8 14.1-5.7 3.1-2.8 5.1-6.1 5.1-10.9v-15.399999999999999s-.8 0-.9.1c-5.8-1.5-10.1-3.4-12.8-6-2.8-2.7-4.3-5.7-4.3-10.1v-74.4c0-3.6 1.4-7 3.9-9.5 2.5-2.4 5.7-3.7 9.1-3.7-2.8-3.3-6.9-5.5-11.5-5.6 1.3 0 2.6-.1 3.8-.4-3.2-2.6-5.3-6.5-5.3-10.9v-42.2c0-4.4 1.1-7.3 3.9-9.9 2-1.8 4.8-3.4 8.3-4.7-3.3-3.1-8.1-5.4-13.5-7.1-5.4 1.4-10.1 3.5-13.3 6.5-3.1 2.8-4.3 6.2-4.3 11v43.7l-.1-1.6c0 8.3 6.8 15.2 15.1 15.4-8.3-.1-15.1 6.5-15.1 14.8zM547.2 328.8c-7.4-.6-13.5-6.8-13.5-13.8h.2s.5-.9.5-1v-96.8c0-.7-.9-1.4-1.6-1.5l-15-1.9c-2.2-.3-11.8-1.3-23.9-.6 3 .2 5 .4 5.8.5 4.9.6 9.7 1.2 14.7 1.8v94l.2-.1c0 8.2 6.8 15 14.8 15.6v.1c-8-.1-14.8 6.3-14.8 14.5l-.2-.1v162.20000000000002h-.6c.7.3 1.3 1 1.8 1.2 1 .5 1.4 1 1.8 1 4.9 0 9.9 0 14.8 1h.1c.4 0 1.1-.6 1.4-.9.3-.3.8-1.1.8-1.5v-158.1l-.3-.1c0-3.5 1.4-6.8 3.9-9.2 2.5-2.4 5.4-3.8 9.4-3.7v-1.5l-.3-1.1z"/><path stroke="#231F20" stroke-width="1.319" stroke-miterlimit="10" d="M661.4 333.7c-8.1-1-14.6-8.1-14.6-16.3v.1-42.3-51.7l-14.8-2.4c-2.8-.5-18.4-2.7-35.6-.5-17.2-4.4-32.8-4.2-35.6-4.1l-14.8.5v96.2c-.9 6.9-7.3 12.4-15 12.1 7.7.3 14.1 6.4 15 14v163.90000000000003l14.8.7c.4.1 7.8-4 17.9-4.4 5.4-.2 11.5-.2 17.7-.4 6.2 1 12.4 1.8 17.7 2.7 10 1.7 17.4 6.7 17.8 6.7l14.8 1.2v-162.2.1c.1-8.2 6.6-14.3 14.7-13.9m-46.9-18.6v-.1c0 8.3-6.8 14.6-15.1 14.1 8.3.5 15.1 7.8 15.1 16.1v-.1 66.7.5 3.9 11.3 13.2 13.7c0 4.8-1.4 8.1-4.5 10.7-3.3 2.8-8.1 4.3-13.5 5.1-5.4-1.5-10.3-3.7-13.5-6.9-3.1-3-4.5-6.5-4.5-11.3v-110.80000000000001c.1.5.1 1.1.1 1.6 0-8.3 6.8-14.7 15.1-14.2-8.3-.5-15.1-7.7-15.1-16 0 .5 0 1.1-.1 1.6v-43.7c0-4.8 1.4-8.1 4.5-10.8 3.3-2.8 8.1-4.7 13.5-5.9 5.4 1.9 10.2 4.4 13.5 7.6 3.1 3.1 4.5 6.6 4.5 11.4v42.3z"/><path fill="#fff" d="M610.6 334.7zM579 342.8l.4-1.6v110.80000000000001c0 4.8.9 8.3 4 11.3 3.3 3.2 7.8 5.3 13.3 6.9 5.4-.8 10.1-2.4 13.4-5.1 3.1-2.6 4.3-6 4.3-10.7v-15.399999999999999s-.2 0-.3.1c-5.8-1.7-9.9-3.8-12.6-6.5-2.8-2.8-4.1-5.9-4.1-10.3v-73.9l.2-.5c0-3.6 1.5-7.2 4-9.6 2.4-2.2 5.5-3.4 8.8-3.6-2.8-3.1-6.7-5.2-11-5.5 1.3.1 2.5 0 3.7-.2-3.3-2.7-5.5-6.8-5.5-11.3l-.1-.5v-41.7c0-4.4 1.3-7.3 4.1-9.6 2-1.7 4.9-3.2 8.5-4.3-3.3-3.2-8.1-5.7-13.5-7.6-5.4 1.2-9.8 3.1-13 5.9-3.1 2.7-4 6-4 10.8v43.7c0-.5-.4-1-.4-1.6 0 8.3 6.8 15.5 15.1 16-8.5-.7-15.3 5.7-15.3 14zM679.3 337.7c-7.5-.9-13.3-6.7-13.3-14.7h.4v-97.2c0-.7-.7-1.3-1.4-1.4l-14.9-2.5c-2.2-.4-11.8-1.8-23.8-1.6 2.9.3 5.2.6 6.1.7 4.9.8 10.1 1.6 15.1 2.4v94c-1 0 .2-.1.2-.1 0 8.2 5.8 15.3 14.8 16.3v.1c-9-.4-14.8 5.7-14.8 13.8l-.2-.1v162.20000000000002c-1 0-.8 0-1.1-.1.8.4 1.3.8 1.7 1 1.1.6 1.3.7 1.6.7 4.9.4 9.8.8 14.8 1.2h.1c.4 0 .9-.1 1.2-.4.3-.3.7-.7.7-1.1v-157.9l-.2-.1c0-3.5 1.2-6.7 3.7-9 2.4-2.3 5.8-3.5 9.3-3.3l.2-1.5h-.1l-.1-1.4zM646.8 511.1h-.1c-4.9-.4-9.8-.8-14.8-1.1-.4 0-.7-.2-1.8-.7-2.3-1.3-8.5-4.7-16.3-6-3-.5-6.1-.9-9.5-1.4l-8.1-1.2c-2.7.1-5.5.1-8.1.2-3.4.1-6.5.1-9.5.2-7.7.3-13.9 2.9-16.2 3.9-1 .4-1.3.6-1.8.5-4.9-.3-9.8-.5-14.8-.7-.8 0-1.4-.7-1.4-1.5v-163.9c-.9-6.9-6.7-12.3-13.6-12.6-.8 0-1.4-.7-1.4-1.5s.8-1.4 1.5-1.4c6.7.3 12.6-4.4 13.4-10.7v-96.2c0-.8.6-1.4 1.4-1.5 4.9-.2 9.9-.4 14.8-.5 2.9-.1 18.4-.4 35.8 4 17.4-2.2 32.8.1 35.7.5l14.8 2.4c.7.1 1.2.7 1.2 1.5v93.89999999999999c0 7.4 5.8 13.9 13.3 14.8l-.2 1.4-.1 1.6c-3.5-.2-6.8 1-9.3 3.3-2.4 2.3-3.8 5.5-3.8 9.1v162c0 .4-.2.8-.5 1.1.2.4-.2.5-.6.5zm-14.4-4.1l13 1v-160.7c.1-4.2 1.7-8.1 4.7-10.9 1.5-1.4 3.2-2.5 5-3.2-5.7-3-9.6-8.9-9.7-15.5v-93c-4.5-.7-9-1.5-13.6-2.2-1.8-.3-17.7-2.8-35.2-.5h-.6c-17-4.4-32.3-4.1-35.2-4-4.5.1-8.9.3-13.4.5v95c-.7 5.6-4.5 10.1-9.6 12.2 5.1 2.5 8.9 7.6 9.6 13.5v162.7c4.4.2 8.8.4 13.2.7.2-.1.4-.2.7-.3 2.5-1 9-3.8 17.3-4.1 3-.1 6.2-.2 9.6-.2 2.7 0 5.4-.1 8.2-.2h.3c2.8.4 5.5.8 8.2 1.2 3.4.5 6.5.9 9.5 1.4 8.2 1.4 14.7 5 17.2 6.3l.8.3zm-36-35.4c-.1 0-.3 0-.4-.1-6.4-1.8-11-4.2-14.1-7.2-3.4-3.3-4.9-7.2-4.9-12.4v-110.7c0-.3.1-.6.3-.8.5-3.5 2.1-6.6 4.7-9 1.4-1.3 3.1-2.4 4.9-3.1-5-2.6-8.7-7.5-9.6-13.2-.2-.2-.3-.5-.3-.8v-43.7c0-5.2 1.6-9 5-11.9 3.2-2.8 8-4.9 14.2-6.2.3-.1.5 0 .8 0 6.1 2.2 10.9 4.8 14.1 8 3.4 3.4 4.9 7.2 4.9 12.4v42.5c-.1 4.3-1.8 8.2-4.8 11.1-1.4 1.3-3.1 2.4-4.9 3.1 5.6 2.9 9.6 8.8 9.7 15.4v109.5c0 5.2-1.6 8.9-5 11.9-3.2 2.7-7.8 4.5-14.2 5.5-.2-.3-.3-.3-.4-.3zm-16.5-128.3v108.6c0 4.4 1.2 7.5 4.1 10.3 2.7 2.7 6.8 4.8 12.6 6.4 5.7-.9 9.8-2.5 12.5-4.8 2.8-2.4 4-5.3 4-9.6v-109.1c0-7.6-6.1-14.1-13.7-14.6-.8-.1-1.4-.8-1.4-1.6.1-.8.8-1.4 1.6-1.4 3.6.2 7-1 9.6-3.3 2.5-2.4 3.9-5.7 3.9-9.2v-42.1c0-4.4-1.2-7.5-4.1-10.3-2.8-2.8-7-5.2-12.6-7.2-5.5 1.3-9.7 3.1-12.5 5.5-2.8 2.4-4 5.3-4 9.7v41.7c.1.2.1.3.1.5 0 7.5 6.2 14 13.7 14.5.8.1 1.4.7 1.4 1.6-.1.8-.8 1.5-1.6 1.4-3.6-.2-7 1-9.6 3.4-2.6 2.4-4 5.7-4 9.3.1 0 .1.1 0 .3z"/><path stroke="#231F20" stroke-miterlimit="10" d="M786.9 348.6c-5.1-2.9-9-8.3-9.7-14.1-.1-.2-.3-.5-.3-.7v-67.2l.1-1.4c0-1.1.1-1.8.1-2.4v-.2h-.1c0-3 1.6-9 8.5-10.2-4.7-3.2-8-8.5-8.5-14.1-1.8-.2-5.5-.7-11.9-1.4-.6-.1-1.1-.2-1.4-.2-.2.1-.4.1-.7.2-2.2.8-7.2 2.6-13.7 3h-.2l-1.4-.2v147.3c0 .7-.6 1.4-1.4 1.5-.7.1-1.5-.4-1.6-1.1-11.7-52.5-23.7-104.7-35.6-156.9-9.8-1-19.6-1.9-29.4-2.8l.2.9v93.1l-.2.1c-.1 6.5-4.1 12-9.8 14.1 5.7 3 9.3 9.1 9.4 15.7l-.4.1v146c0 5.4-2.8 10-7.1 12.5 1.9.2 4 .3 6 .5h.3c4.9.4 9.9.9 14.8 1.4.7.1 16.8 1.7 17.5 1.7.1 0 .2 0 .3.1 1.7.2 3.5.4 5.2.5-4.2-3.4-7.1-8.6-7.1-14.2v-139.60000000000002c0-.7.5-1.3 1.2-1.5.7-.1 1.4.3 1.6 1 12 36.7 24 73.6 36 110.5 0 .1.1.3.1.5v46.9l17.5 2c.1 0 .2 0 .3.1 3.9.4 7.7.9 11.6 1.4v-160.2c0-.3.1-.5.2-.7.8-5.8 4.5-10.3 9.6-12z"/><path fill="#fff" d="M709.1 230.5c11.9 52.2 23.8 104.4 35.7 156.7.2.7 1.2 1.2 1.9 1.1.7-.1 1.6-.7 1.6-1.5v-74.2c-7-27.5-14-54.9-19-82.4v-.1c0-.8-.5-1.4-1.3-1.5-10.8-1.1-21.6-2.2-32.3-3.3-.4-.1-.8.1-1.2.4-.3.3-.5.7-.5 1.1v2.1c5.2.7 10.2 1.1 15.1 1.6zM743.4 517.5c-7.6-.8-14-7.7-14-15.3v-88.6c-6-17.8-11.6-35.6-17.4-53.4-.2-.7-.8-1.1-1.6-1-.7.1-1 .7-1 1.5v139.8c0 5.6 2.6 10.8 6.9 14.2-1.7-.2-3.7-.4-5.5-.5-.1 0-.2 0-.3-.1-.7-.1-16.9-1.6-17.5-1.7-3.7-.4-7.5-.7-11.2-1-.4 0-.8.4-1.3.3l.1.4h-.2v-.8c-1-.1-1.4.5-1.5 1.3-.1.8.6 1.5 1.4 1.5h.1c5.1 2 10.2 1 15.2 1.5h.3l14.4 1.4c.4.1 15 1.6 17.4 1.8.1 0 .2 0 .3.1l15.2 1.4s0-.2.1-.2c.8 1 1.6-.3 1.7-1.1-.1-.9-.8-1.4-1.6-1.5zM811.5 352.4c-7.6-1-13.4-8-13.4-15.6 0-.2.3-.3.3-.4v-64.4h-.7v-.7l.4-1.1.4-3.5c0-7.5 5.3-10.1 10.6-10.1.8 0 1.4.1 2.2.2.8.1 1.5.1 1.6-.7.1-.8-.5-1.1-1.4-1.1-7.6-2-13.7-8.6-13.7-16.2 0-.8-.6-1.8-1.4-1.8l-.1-.1c-1.1-.1-9.4-1.2-12.6-1.6-1.2-.2-1.7-.3-1.9-.3-.5-.1-.7 0-1.8.4-1.4.5-4.1 1.4-7.7 2.1 2.4.3 4 .4 5 .6.5 5.7 3.8 10.8 8.5 14-6.9 1.2-8.5 5.9-8.5 9.9 0 0-.1.3-.1.4 0 .6.2 1.6.2 2.7l.1 1.4v67.2c0 .3-.1.5.1.7.7 5.8 4.5 11.2 9.6 14.1-5.1 1.7-8.9 6.2-9.6 11.9-.1.2-.2.5-.2.7v160.2l-11.6-1.4c-.1 0-.2 0-.3-.1-1-.1-2-.2-2.9-.3v1.7c0 .7.6 1.4 1.3 1.5 6.2.7 12.4 1.5 18.5 2.2.1 0 .2 0 .3.1 4.5.5 9 1.1 13.5 1.7h.2c.4 0 .7-.1 1-.4.3-.3.5-.7.5-1.1v-157.9l.1-.4c0-6.7 5-11.4 11.6-11.4l1.8.5c.8 0 1.5-.8 1.7-1.6-.2-.8-.8-1.9-1.6-2zM778.7 524.5h-.2l-13.5-1.6c-.1 0-.2 0-.3-.1-6.2-.7-12.4-1.4-18.5-2.1-.7-.1-1.3-.7-1.3-1.5v-47.9c-11-33.9-22-67.7-33-101.4v45.3l.1.4v84.8c.1 7.5 6.3 14.3 13.8 15.2h.2c.7.2 1.2.8 1.1 1.6-.1.7-.7 1.3-1.4 1.3h-.2c-5-.5-10.1-1-15.1-1.6h-.3c-2.4-.2-17-1.6-17.4-1.7l-14.4-1.3h-.3c-5.1-.5-10.2-.9-15.2-1.3h-.1c-.8-.1-1.4-.8-1.3-1.6.1-.8.8-1.4 1.6-1.3 7.3.6 13.3-4.7 13.6-11.8v-146c0-7.6-6.2-14.3-13.7-14.9-.8-.1-1.4-.8-1.3-1.6.1-.8.8-1.4 1.6-1.3 7.6.6 13.5-4.9 13.5-12.3v-93c0-.8-.1-1.7-.1-2.6 0-.4.2-.8.5-1.1s.7-.4 1.2-.4c10.8 1 21.6 2 32.3 3.1.8.1 1.3.7 1.3 1.5v.1c11 48.1 22 96.3 33 144.6v-136c0-.4.2-.8.5-1.1.3-.3.7-.4 1.1-.4l3 .3c6.1-.4 10.8-2.1 12.8-2.9 1.1-.4 1.3-.5 1.8-.4.2 0 .6.1 1.6.2 2.9.4 11.7 1.4 12.8 1.5h.1c.8 0 1.5.7 1.5 1.5 0 7.6 6.1 14.5 13.7 15.5.8.1 1.4.8 1.3 1.6-.1.8-.8 1.4-1.6 1.3-9.3-1.2-13.4.9-13.4 7.1v69.8l.1.4v.1c0 7.5 6.2 14.4 13.7 15.4.8.1 1.4.8 1.3 1.6-.1.8-.8 1.4-1.6 1.3-.6-.1-1.2-.1-1.7-.1-6.6 0-11.6 5.1-11.7 11.8 0 .1 0 .3-.1.4v160.1c0 .4-.2.8-.5 1.1-.2.3-.6.4-.9.4zm-13.1-4.5c3.9.4 7.7.9 11.6 1.4v-160.2c0-.3.1-.5.2-.7.7-5.7 4.4-10.2 9.6-11.9-5.1-2.9-8.8-8.3-9.6-14.1-.1-.2-.2-.5-.2-.7v-71.4h-.1c0-4.1 1.6-8.9 8.5-10.1-4.7-3.2-8-8.4-8.5-14.1-1.8-.2-5.5-.6-11.9-1.4-.6-.1-1.1-.1-1.4-.2-.2.1-.4.1-.7.2-2.2.8-7.2 2.6-13.7 3h-.3l-1.5-.2v147.3c0 .7-.6 1.4-1.3 1.5-.7.1-1.4-.4-1.6-1.1-11.9-52.3-23.8-104.5-35.7-156.7-9.8-1-19.7-1.9-29.6-2.8v94.1c-.1 6.5-4 12-9.7 14.1 5.7 3 9.7 9.1 9.7 15.7v146.1c-.3 5.4-3.1 10-7.4 12.5l5.8.5h.3c4.9.4 9.8.9 14.8 1.4.7.1 16.8 1.7 17.5 1.7.1 0 .2 0 .3.1 1.7.2 3.5.4 5.2.5-4.2-3.4-7-8.6-7.1-14.2v-84.3c0-.1-.1-.2-.1-.4v-55c0-.7.5-1.3 1.2-1.5.7-.1 1.4.3 1.6 1 12 36.7 24 73.6 36 110.5 0 .1.1.3.1.5v46.9l17.5 2h.5zM585.1 106.5l-3.1-1.6-.5.9c1.1.5 2.1 1.1 3.1 1.6 1.3.7 2.7 1.4 4 2l.1-1c-1.1-.6-2.3-1.3-3.6-1.9zM449.8 65.7l-.9-.1.1 1.6c.2 0 .3 0 .5.1l.3-1.6zM342.5 69.2l5.9-.9 7.8-.9-.1-1.5-8 .9c-2.1.3-4.2.6-6.3 1l.7 1.4zM663.6 159.2c-3.3-2.7-7.9-6.9-14.3-11.7-1.6-1.2-3.2-2.5-5-3.8-1.7-1.4-3.5-2.8-5.5-4.1-3.9-2.8-8.1-5.8-12.7-8.9-3.1-2-6.3-4-9.6-6.2v.8c3.2 2 6.3 4 9.3 5.8 4.6 3.1 8.8 6.1 12.8 8.8 2 1.3 3.8 2.7 5.6 4.1 1.7 1.3 3.4 2.6 5 3.8 6.4 4.6 11.1 8.7 14.4 11.4 3.2 2.8 5 4.2 5 4.2s-1.7-1.5-5-4.2zM176.6 133.7c-3.7 2.6-7.1 5.1-10.3 7.4-2 1.4-3.8 2.8-5.5 4.2-1.7 1.4-3.4 2.6-4.9 3.9-6.3 4.8-10.9 9-14.2 11.8-3.2 2.8-5 4.3-5 4.3s1.7-1.5 5-4.2 7.9-6.9 14.3-11.6c1.6-1.2 3.2-2.5 5-3.8 1.7-1.3 3.5-2.8 5.5-4.1 3.2-2.2 6.5-4.6 10.1-7.1v-.8zM296.2 79.1l-.3-1.4c-3.9 1-7.6 2.2-11.4 3.4h-.1l.4 1.3h.1c3.8-1.1 7.5-2.4 11.3-3.3zM478.6 155.7c-2.4-.5-5.4-.9-9.1-.9-12.3 0-29.9 5.8-42 5.8-16.2 0-19-7.5-20.7-7.5-1.3 0-1.7 1.6-4.8 1.6-3.1 0-3.5-1.6-4.8-1.6-1.6 0-4.5 7.5-20.7 7.5-12.1 0-30.3-5.8-43-5.8-3.9 0-6.9.3-9.4.8-1.7.4-3.1.8-4.2 1.3-1 .4-1.6 0-1.2-.3 1.3-.7 3.1-1.4 5.3-1.9 2.9-.6 6.3-.9 9.8-.9 15.1 0 32.2 4.4 45.7 4.4 14.3 0 16.1-6.2 17.6-6.2 1.3 0 1.9 2 4.9 2 3 0 3.6-2 4.9-2 1.4 0 3.3 6.2 17.6 6.2 13.4 0 30.1-4.4 44.7-4.4 3.4 0 6.7.3 9.5.9 4.1.9 6.9 2.6 8 3.8l-.7.2c-1-.7-3.3-2-7.4-3zM326.7 157.1c2.4.5 5.4.9 9.1.9 12.3 0 29.9-5.8 42-5.8 16.2 0 19 7.5 20.7 7.5 1.3 0 1.7-1.6 4.8-1.6 3.1 0 3.5 1.6 4.8 1.6 1.6 0 4.5-7.5 20.7-7.5 12.1 0 30.3 5.8 43 5.8 3.9 0 6.9-.3 9.4-.8 1.7-.4 3.1-.8 4.2-1.3 1-.4 1.6 0 1.2.3-1.3.7-3.1 1.4-5.3 1.9-2.9.6-6.3.9-9.8.9-15.1 0-32.2-4.4-45.7-4.4-14.3 0-16.1 6.2-17.6 6.2-1.3 0-1.9-2-4.9-2-3 0-3.6 2-4.9 2-1.4 0-3.3-6.2-17.6-6.2-13.4 0-30.1 4.4-44.7 4.4-3.4 0-6.7-.3-9.5-.9-4.1-.9-6.9-2.6-8-3.8l.7-.2c1.1.7 3.3 2 7.4 3zM402.7 113.6c22.9 0 41.4 18.5 41.4 41.4s-18.5 41.4-41.4 41.4-41.4-18.5-41.4-41.4c-.1-22.9 18.5-41.4 41.4-41.4z"/><path d="M382.8 182.6v-5.2c0-.2.3-.3.3-.3h3.6c1.3 0 2.7-.2 2.7 1.8 0 .4 0 1.2-.8 1.6.5.2 1.1 1.3 1.1 2.2 0 1.1.4 2.9-1.2 2.9l-5.5-2.6-.2-.4zm1.7-2.7h1.7c.4 0 1.1-.1 1.1-1 0-.6 0-.7-1-.7h-1.7v1.7zm0 2.5l2 .8c1.5.4 1.5-.6 1.2-1.3-.3-.7-1.6-1.2-2.1-1.1h-1.1v1.6zM395.4 183.1s-.4-.9-1-.9h-1.3l.1 4h-1.9v-9.3h4.1c1.1 0 2.6.9 3 2.3.4 1.5-.6 2.4-1.5 3-.2.1 1.8 5.4 1.8 5.4.2.4 0 .3-.3.5-.4.2-.9.4-.9.4s-.4.2-.5-.1c-.2-.4-1.6-5.3-1.6-5.3zm-2.3-2.3h2.2c.7 0 1-.2 1-1.2 0-1.1-1-1.2-1.5-1.2h-1.7v2.4z"/><path fill-rule="evenodd" clip-rule="evenodd" d="M397.6 153.8h9.6v2.3h-9.6z"/><path d="M378.9 155.6v12s-.1 2.3 1.4 2.7c.9.3 1.4.2 1.4.9-.1 1.2 0 2.1 0 2.1h-8.600000000000001v-1.6s-.2-.7.8-1c1.6-.5 2.1-1.2 2.3-4.9.2-3.7.2-16.6.2-16.6s.4-6.8-3.5-7.1c0 0-.1-.1 0-.5s0-2.3 0-2.3h8.2l7.5 16.4s1 1.9 1.2 0c.2-1.9.1-10.9.1-10.9s0-2.5-2-3.1l-.7-.1c-.4 0-.7-.2-.7-.6v-1.1s-.2-.6.9-.5h8c.7-.1.7.7.7.7v1.1s.2.8-1 .9c0 0-2.1.7-2.3 4-.2 3.3-.2 27-.2 27l-2.4.2s-1.4-.2-1.6-.8c-.5-1.2-9-16.9-9-16.9-.4-.7-.7 0-.7 0zM416 140.5h17.2c.9-.1.7.1.2.7-1 1.1-11 14-11.8 21.4-.9 7.4 5.3 6.7 7 4.5 1.7-2.2.3.5.3.5-.7 1.4-7.2 11.8-16.2 4.8-6-4.6.3-14.5.8-15.2 1.4-2.3 9.1-10.3 11.8-12.1.9-.6-.4-.3-.7 0-.3.3-3.7 2.3-5.5 2.3-1.8 0-4.2.1-4.2.1s-1.6.2-2.1 1.3c-.3.6-.4 1-.4 1s-.1.1-.7.2c-.8 0-1.3-.5-1.3-.5s0-.2.4-1.2l3.2-8.8s.2-.9.6-.9c.4 0 1.4.5 1.2 1.1-.3.6.2.8.2.8zM403.4 179.7c-.2 0-.3.2-.3.2l-.5 2s-.1.2.1.4.3.5.3.5 0 .1.3.1h.5c.2 0 .3-.2.3-.2l.5-.6c.2-.2 0-.4 0-.4l-.5-1.8s-.1-.2-.3-.2c-.1-.1-.4 0-.4 0zm1.6 3.9c-.2.4-.9 1.4-.9 1.4h-.9l-1-1.4-.4 1c-.3.8-.8 2.5-.8 2.5s-.2.6-.5.6h-1.2s-.4 0-.2-.8 3.1-9.2 3.1-9.2.2-.4.4-.5h2s.4.1.6.7c.3.6 3.1 9 3.1 9s.1.4-.2.5c-.3.1-1.3.3-1.3.3s-.5-.3-.5-.5c0-.1-1.3-3.6-1.3-3.6zM409.5 177.7l.1 8.2s-.2 1.2.3 1.2 1.1-.2 1.1-.2.5-.1.4-.8c-.1-.8 0-4 0-4s.2-.4.7.2c.5.6 2.1 3.6 2.1 3.6s.3.3.7.1c.3-.2 1.1-.5 1.1-.5s.4-.1.3-.8c-.1-.6 0-7.2 0-7.2s-.2-.4-.7-.3h-.9s-.3.2-.3.7c0 .5-.1 3.6-.1 3.6s0 .9-.5.2c-.5-.8-2.4-4.1-2.4-4.1s0-.4-.4-.5c-.4-.1-1.1 0-1.1 0s-.4.2-.4.6zM419.6 178.6c-.7.1-.7.8-.7.8v2.5s.1.8.9.6c.9-.3 2-.9 2-.9s.6-.4.6-1.1l-.1-.9c0-.3-.2-.4-.2-.4-.2-.3-.4-.5-.9-.5-.6-.1-1.6-.1-1.6-.1zm-2-.6c0-.6.6-.7.6-.7s2.9-.1 4 .1c1 .1 1.4 1 1.4 1s.2.9.2 2.4c-.1 1.5-1.1 1.8-1.1 1.8s-2.8 1.5-4 2c-1.1.5-1-.3-1-.3l-.1-6.3z"/><path fill-rule="evenodd" clip-rule="evenodd" d="M390.3 130.2c0 1.5 1.2 2.7 2.7 2.7 1.5 0 2.7-1.2 2.7-2.7 0-1.5-1.2-2.7-2.7-2.7-1.5 0-2.7 1.2-2.7 2.7zm-1.8 0c0-2.5 2-4.5 4.5-4.5s4.5 2 4.5 4.5-2 4.5-4.5 4.5c-2.5-.1-4.5-2.1-4.5-4.5zM399.7 145.9c0 2.6 1.1 4.1 2.8 4.1 1.8 0 2.9-1.6 2.9-4.2 0-2.2-1-3.9-2.8-3.9-1.9 0-2.9 1.6-2.9 4zm-2.4-.1c0-3.4 2-6.1 5.3-6.1 3.2 0 5.2 2.7 5.2 6.1 0 4-2.4 6.4-5.3 6.4-3 0-5.2-2.4-5.2-6.4zM400 123.5h2.1v9.1h4.1v2h-6.3zM410.6 127.2v5.9h2.2s1.4.1 1.8-1.9c.3-1.7-.1-2.6-.1-2.6-.5-1.4-1.8-1.4-1.8-1.4h-2.1zm-1.7-1.5h4s2 0 3 2c0 0 .9 1.3.3 3.9-.8 3.1-3.3 3-3.3 3h-4v-8.9z"/><path d="M402.7 116.8c21.1 0 38.2 17.1 38.2 38.2s-17.1 38.2-38.2 38.2-38.2-17.1-38.2-38.2c-.1-21.1 17-38.2 38.2-38.2zm-35.8 38.2c0 19.7 16 35.7 35.7 35.7 19.7 0 35.7-16 35.7-35.7 0-19.7-16-35.7-35.7-35.7-19.7 0-35.7 16-35.7 35.7z"/><g fill-rule="evenodd" clip-rule="evenodd" fill="#fff"><path d="M578.1 134c.5-.7 1-1.1 1.4-.9.8.5.5 1.3.2 1.9-2.3 3.8-3.6 10.9 4.3 15.7 3.5 2.1 6.7 1 10-4.5 3.5-5.9-3.2-37.2 5.5-51.6 2.6-4.4 13-9.9 20.1-5.6 4.9 3 7.2 9.4 9.7 10.9 2.2 1.3 1.8 0 2.9.6.4.3.1 1.1-.5 2l-6.7 9.1c-.8 1-1.5 2-2.1 1.6-.6-.4.8-3.5 1.3-5.2 1-3.9-.4-11.4-4.5-13.8-3-1.8-6.4-.1-8 2.5-6.2 10.3 3.9 34.4-6.9 52.3-3.5 5.8-12.2 12.8-21.6 7.1-6.5-3.9-7.4-8.7-9-9.7-1.6-1-4.4.4-5.1 0-.6-.4.4-1.4.5-1.6l8.5-10.8M544.6 78.4c-.9 2-.4 4 1.9 5 4.2 1.9 7.3-7.1 9.5-6 .7.3.6 1.6.1 2.6l-8.4 18.5c-.6 1.3-1.3 2-1.9 1.7-2.6-1.2 2.1-10.3-1.6-12-2.1-1-3.9-.4-4.8 1.7l-11.7 25.7c-1 2.1-.7 2.9 2.5 4.3 3 1.4 10.4-1.9 12.7-3.2.7.3.8 1.1.3 1.7l-6.6 8.8-27.4-11.3c-.9-.4-1.3-1-1.1-1.6.8-1.7 3.8.5 7.4-7.4l22.5-49c3.6-7.9-.9-8-.1-9.7.3-.6 1-.6 1.9-.2l28.6 13-3.4 11.6c-.7 2.7-2.2 1-1.9-1.4.3-2.6-1.1-9.6-6.5-12.1-2.5-1.1-2.9-.3-5.5 5.5l-6.5 13.8M492.9 39.7c1.3-4.9-1.1-4.5-.8-5.6.2-.6.9-.6 2.4-.1l7.2 2.4c1.2.4 1.8.6 1.6 1.3-.2 1-2.1-1.1-3.8 5.1l-17.4 61.9c-.5 1.8.3 1.4.1 1.9-.1.3-.6.3-1 .2l-7.6-2.5c-.5-.1-.8-.4-.9-1l-7.2-42.4c-.2-1.1-1-1.2-1.2-.2l-6.3 29.9c-1.9 9.3 1.9 7.8 1.5 9.1-.1.6-.5.8-1.2.6l-8.8-1.4c-.6-.1-1.3-.3-1.1-.8.4-1.5 1.3.2 2.4-4.6l12.6-60.4c.7-3.5-3.1-5.2-2.8-6.4.2-.6.8-.6 1.9-.3l9.6 2.4c1 .3 1.1.7 1.6 3.5l7.2 37.1c.7 3.5 1.9 5.8 2.4 4.1l9.6-33.8M400.9 95.8c-.6 0-.9-.2-.8-.8.1-1.1 2.8.4 5.9-9.4l16.9-52.2c1-3.1 1.7-4.8 1.9-6.4.2-2.2-2.1-3.1-2-4.1 0-.4.4-.4.8-.3l14.2 1.4c.9.1 1 .8 1.3 4.9l5.4 62.6c.7 6.8 2.9 5.2 2.7 6.6-.1.7-.8.8-1.7.7l-17-1.2c-1 0-1.6-.3-1.5-1 .1-1.5 3 .2 2.4-6.2l-1-12.4-12.8-1.2-4 12.4c-1.9 5.8 3 4.7 2.8 6.2-.1.5-.4.5-.8.5l-12.7-.1m16.5-24.4l10.6 1.1-1.8-20.6c-.3-3.7-1.1-4.5-2.5-.2l-6.3 19.7M374.8 0c16.1-.6 30.6 12.8 31.6 39.2 1.5 37.2-11.7 56.8-27.2 57.4l-16.7.7c-1.4.1-1.9-.2-2-.5-.1-1.6 3.3-1.4 3.2-5.7l-3.2-81.9c-.3-7.5-3.2-5.7-3.3-7.3 0-.9 1.9-1.2 5.1-1.3l12.5-.6m14.8 27.3c-.4-9.6-3.1-22.1-11-21.8-2.1.1-2.9.3-2.8 1.7l3.1 81.4c.1 1.9 1.3 1.6 3.5 1.5 6.1-.2 8.9-18.8 8.6-26.5l-1.4-36.3M506.1 104.2c-2.9 8.2 1.6 7.9 1 9.7-.2.6-.9.7-1.8.4l-18.7-6c-.9-.3-1.4-.9-1.2-1.5.6-1.8 3.9 1.3 6.8-6.9l17.9-50.9c2.9-8.2-1.6-7.9-1-9.7.2-.6.9-.7 1.8-.4l18.6 6.5c.9.3 1.4.8 1.2 1.4-.6 1.8-3.9-1.3-6.8 6.9l-17.8 50.5M560.7 129c-2.3 4.1-2 4.9.4 6.3 4.4 2.5 13.9-2.3 14.9-1.7.6.3.3 1.1-.2 1.5l-9 8.6-26.6-14.7c-.8-.5-1.2-1.1-.9-1.6 1-1.7 4.7 1.4 8.5-5.3l27-47.2c4.3-7.6-.2-8 .8-9.7.3-.6 1.1-.5 1.9-.1l17.1 9.7c.8.5 1.2 1.1.9 1.6-1 1.7-3.7-2-8 5.6l-26.8 47M617.1 65.3c-.3-3.7-3.5-6.4-7.1-6-3.6.3-6.3 3.5-6 7.2.2 1.9 1.2 3.6 2.6 4.7.2 2.7-4 1.3-3.8 3.8 0 .7.6.9 2.2.8 3.8-.5 12.7-3.6 12.1-10.5M308.2 108.9c-1.1.2-1.5.3-1.6-.4-.4-1.6 2.9-1.8 1.9-5.8l-14.1-60.3c-1-4.3-3.3-2.9-3.6-4.2-.1-.5.1-.6.8-.8l18.9-4.4c.3-.1.6.1.7.4.3 1.5-3.1 1.2-2.2 4.9l4.5 19.5c.1.4.4.9.8.8.4-.1 1.1-1.2 1.4-2l6.9-18.4c.4-1.2.8-2.7.5-4.3-.4-1.7-2.1-1.3-2.3-2.3-.1-.5.1-.6.7-.7l12.3-2.9c.4-.1.5 0 .6.4.3 1.1-2.7.2-6.3 10.5l-4 10.6c-2.3 6.5-4.2 10.6-3.8 11.9 1 4.1 8.9 1.6 11 1.1.7-.2 1.2 0 1.7 1.1l13.8 31.7c1.8 3.6 5.4 1.9 5.8 3.6.2.6 0 .9-.6.9l-16.3 2.6c-1.7.3-2.2-.2-2.7-1.4l-13.6-31c-.4-1-1.1-2.1-1.7-2-.8.2-1.3 1.6-1.1 2.4l7 29.9c.5 2.1 3.5 1.1 3.8 2.3.1.3.1.6-.4.7l-18.8 5.6M282.4 96.3c1.6 5 6.5 16.8 12.3 14.9 4.8-1.6 4.2-12.3 3.4-14.6-.6-1.9-2.1-5-3.3-6.4-1.1-1.4-.3-1.8.5-1.5 4.5.7 6.6 4.9 8 9 2.1 6.3-.7 14.9-7.9 17.3-11.5 3.8-25.9-7-34.1-32-4.1-12.6-5.9-33.7 6.7-37.8 2.7-.9 8.3-1.6 10.7-2.4 1.4-.5 1.4-2.8 2.3-3.1.4-.1.6.4.8.7l4.2 12.8c.2.6-.1.7-.4.8-.9.3-6.3-9-12.4-7-6.5 2.1-3.5 10.5-2.4 14l11.6 35.3M243.4 128.4c.8 3.1 1.6 4.8 4.6 4 .7-.2 1.5.7.9 1-1.2.6-9.6 6-12 7.3-.5.3-.9-.8-.5-1.3 1.7-1.9 2-3.9 1.5-6.8l-15.1-58.1c-1.1-4-2.3-5.2-3.6-5-2.8.5-2.4-2-.7-2.9 4.4-2.2 9.8-4.7 12.6-6.1l42.1 51.9c2.2 2.7 2.9 3.2 4.9 3 1-.1 1.7 1.2.7 1.8-7.2 3.6-13.1 7.2-20.1 10.7-1.1.6-2-.8-.9-1.6 2.2-1.6 1.9-5.2.3-6.9l-6.8-8.4-10.8 5.8 2.9 11.6m-9.8-38.7c-.4.2.1 1.4.3 2.4l4.8 18.6 8.8-4.2-12.1-15c-.3-.5-1.3-2.1-1.8-1.8M180.1 73.1c-1.7-2.8-3.6-4.1-6.2-3.5-1.1.3-1.1-1-.4-1.5 5.9-3.7 11.4-7.9 17.6-11.8 1.1-.7 1.2.4.9 1-1.2 2.5-1 3.3 1.6 7.3l31 49.6c6.7 10.6 12.2 29.1-5.5 40.1-11.1 6.9-25.4 3.7-32.4-7.5-4.9-7.9-4.7-19.7 1.8-23.7 4.3-2.7 9.1-2.7 12.1 2 .6 1 .8 2.3 1.5 3.4-1.1.7-1.7.3-3.2 1.3-3.6 2.3-3.3 9.9-.2 15 3.4 5.5 9.9 10 17.3 5.4 8.8-5.5 1.8-17.4-1.8-23.1l-34.1-54"/></g></svg>